<svg width="16" height="16" viewBox="0 0 64 64" fill="none" xmlns="http://www.w3.org/2000/svg">
<path d="M31.8285 38.2704H31.8281C27.1125 38.2704 23.2898 42.0931 23.2898 46.8087V55.3474C23.2898 60.0629 27.1125 63.8857 31.8281 63.8857H31.8285C36.5441 63.8857 40.3668 60.0629 40.3668 55.3474V46.8087C40.3668 42.0931 36.5441 38.2704 31.8285 38.2704Z" fill="#FFFFFF"/>
<path d="M8.65297 13.2648H8.65256C3.93699 13.2648 0.114258 17.0875 0.114258 21.8031V55.3474C0.114258 60.0629 3.93699 63.8857 8.65256 63.8857H8.65297C13.3685 63.8857 17.1913 60.0629 17.1913 55.3474V21.8031C17.1913 17.0875 13.3685 13.2648 8.65297 13.2648Z" fill="#FFFFFF"/>
<path d="M55.0045 0.457153H55.0041C50.2885 0.457153 46.4658 4.27988 46.4658 8.99545V55.3474C46.4658 60.063 50.2885 63.8857 55.0041 63.8857H55.0045C59.7201 63.8857 63.5428 60.063 63.5428 55.3474V8.99545C63.5428 4.27988 59.7201 0.457153 55.0045 0.457153Z" fill="#FFFFFF"/>
<path style="mix-blend-mode:overlay" d="M55.0045 0.457153H55.0041C50.2885 0.457153 46.4658 4.27988 46.4658 8.99545V55.3474C46.4658 60.063 50.2885 63.8857 55.0041 63.8857H55.0045C59.7201 63.8857 63.5428 60.063 63.5428 55.3474V8.99545C63.5428 4.27988 59.7201 0.457153 55.0045 0.457153Z" fill="#FFFFFF"/>
<path style="mix-blend-mode:overlay" d="M31.8285 38.2704H31.8281C27.1125 38.2704 23.2898 42.0931 23.2898 46.8087V55.3474C23.2898 60.0629 27.1125 63.8857 31.8281 63.8857H31.8285C36.5441 63.8857 40.3668 60.0629 40.3668 55.3474V46.8087C40.3668 42.0931 36.5441 38.2704 31.8285 38.2704Z" fill="#FFFFFF"/>
<path style="mix-blend-mode:overlay" d="M8.65297 13.2648H8.65256C3.93699 13.2648 0.114258 17.0875 0.114258 21.8031V55.3474C0.114258 60.0629 3.93699 63.8857 8.65256 63.8857H8.65297C13.3685 63.8857 17.1913 60.0629 17.1913 55.3474V21.8031C17.1913 17.0875 13.3685 13.2648 8.65297 13.2648Z" fill="#FFFFFF"/>
</svg>
