<svg width="16" height="16" viewBox="0 0 64 64" fill="none" xmlns="http://www.w3.org/2000/svg">
<path d="M31.8285 38.2704H31.8281C27.1125 38.2704 23.2898 42.0931 23.2898 46.8087V55.3474C23.2898 60.0629 27.1125 63.8857 31.8281 63.8857H31.8285C36.5441 63.8857 40.3668 60.0629 40.3668 55.3474V46.8087C40.3668 42.0931 36.5441 38.2704 31.8285 38.2704Z" fill="#9F72FC"/>
<path d="M8.65297 13.2648H8.65256C3.93699 13.2648 0.114258 17.0875 0.114258 21.8031V55.3474C0.114258 60.0629 3.93699 63.8857 8.65256 63.8857H8.65297C13.3685 63.8857 17.1913 60.0629 17.1913 55.3474V21.8031C17.1913 17.0875 13.3685 13.2648 8.65297 13.2648Z" fill="#FD60B7"/>
<path d="M55.0045 0.457153H55.0041C50.2885 0.457153 46.4658 4.27988 46.4658 8.99545V55.3474C46.4658 60.063 50.2885 63.8857 55.0041 63.8857H55.0045C59.7201 63.8857 63.5428 60.063 63.5428 55.3474V8.99545C63.5428 4.27988 59.7201 0.457153 55.0045 0.457153Z" fill="#5ABBE5"/>
<path style="mix-blend-mode:overlay" d="M55.0045 0.457153H55.0041C50.2885 0.457153 46.4658 4.27988 46.4658 8.99545V55.3474C46.4658 60.063 50.2885 63.8857 55.0041 63.8857H55.0045C59.7201 63.8857 63.5428 60.063 63.5428 55.3474V8.99545C63.5428 4.27988 59.7201 0.457153 55.0045 0.457153Z" fill="url(#paint0_linear_696_130)"/>
<path style="mix-blend-mode:overlay" d="M31.8285 38.2704H31.8281C27.1125 38.2704 23.2898 42.0931 23.2898 46.8087V55.3474C23.2898 60.0629 27.1125 63.8857 31.8281 63.8857H31.8285C36.5441 63.8857 40.3668 60.0629 40.3668 55.3474V46.8087C40.3668 42.0931 36.5441 38.2704 31.8285 38.2704Z" fill="url(#paint1_linear_696_130)"/>
<path style="mix-blend-mode:overlay" d="M8.65297 13.2648H8.65256C3.93699 13.2648 0.114258 17.0875 0.114258 21.8031V55.3474C0.114258 60.0629 3.93699 63.8857 8.65256 63.8857H8.65297C13.3685 63.8857 17.1913 60.0629 17.1913 55.3474V21.8031C17.1913 17.0875 13.3685 13.2648 8.65297 13.2648Z" fill="url(#paint2_linear_696_130)"/>
<defs>
<linearGradient id="paint0_linear_696_130" x1="34.7168" y1="52.2783" x2="77.9576" y2="49.1718" gradientUnits="userSpaceOnUse">
<stop stop-color="#808080"/>
<stop offset="0.192" stop-color="#848484"/>
<stop offset="0.392" stop-color="#909090"/>
<stop offset="0.595" stop-color="#A5A5A5"/>
<stop offset="0.798" stop-color="#C2C2C2"/>
<stop offset="0.997" stop-color="#E6E6E6"/>
</linearGradient>
<linearGradient id="paint1_linear_696_130" x1="21.1552" y1="61.7596" x2="46.9085" y2="50.3044" gradientUnits="userSpaceOnUse">
<stop stop-color="#808080"/>
<stop offset="0.192" stop-color="#848484"/>
<stop offset="0.392" stop-color="#909090"/>
<stop offset="0.595" stop-color="#A5A5A5"/>
<stop offset="0.798" stop-color="#C2C2C2"/>
<stop offset="0.997" stop-color="#E6E6E6"/>
</linearGradient>
<linearGradient id="paint2_linear_696_130" x1="-8.42425" y1="55.432" x2="29.0442" y2="51.2228" gradientUnits="userSpaceOnUse">
<stop stop-color="#808080"/>
<stop offset="0.192" stop-color="#848484"/>
<stop offset="0.392" stop-color="#909090"/>
<stop offset="0.595" stop-color="#A5A5A5"/>
<stop offset="0.798" stop-color="#C2C2C2"/>
<stop offset="0.997" stop-color="#E6E6E6"/>
</linearGradient>
</defs>
</svg>
